===================== SKEPTA - OYNAMA SIKDUM =====================================

Format                           : Matroska
File size                        : 41.5 MiB
Duration                         : 2mn 29s
Overall bit rate                 : 2 329 Kbps
Encoded date                     : UTC 2010-11-28 12:14:52
Writing application              : mkvmerge v2.6.0 ('Kelly watch the Stars') built on Mar 24 2009 15:23:17
Writing library                  : libebml v0.7.7 + libmatroska v0.8.1

Video
ID                               : 1
Format                           : AVC
Format/Info                      : Advanced Video Codec
Format profile                   : High@L3.1
Format settings, CABAC           : Yes
Format settings, ReFrames        : 1 frame
Muxing mode                      : Container profile=Unknown@3.1
Codec ID                         : V_MPEG4/ISO/AVC
Duration                         : 2mn 29s
Bit rate                         : 1 962 Kbps
Width                            : 1 280 pixels
Height                           : 720 pixels
Display aspect ratio             : 16:9
Frame rate                       : 25.000 fps
Color space                      : YUV
Chroma subsampling               : 4:2:0
Bit depth                        : 8 bits
Scan type                        : Progressive
Bits/(Pixel*Frame)               : 0.085
Stream size                      : 35.0 MiB (84%)

Audio
ID                               : 2
Format                           : AC-3
Format/Info                      : Audio Coding 3
Mode extension                   : CM (complete main)
Codec ID                         : A_AC3
Duration                         : 2mn 29s
Bit rate mode                    : Constant
Bit rate                         : 320 Kbps
Channel(s)                       : 2 channels
Channel positions                : Front: L R
Sampling rate                    : 48.0 KHz
Stream size                      : 5.70 MiB (14%)

=========================(((((SCREEN SHOTS))))))))==============================
                         http://bayimg.com/kAIkOAaDD
================================================================================
